v 3.86729 -109.5 62.0888
v 5.04014 -111.456 63.0917
l 1 2
v 3.99815 -111.776 63.3495
v 5.7921 -112.932 65.496
l 3 4
v 5.04014 -111.456 63.0917
v 6.38878 -113.398 64.2177
l 5 6
v 5.29893 -111.917 61.954
v 4.92198 -109.247 61.7518
l 7 8
v 17.4109 -246.722 89.6919
v 16.1228 -247.87 89.2876
l 9 10
v -1.98018 143.399 98.9423
v -1.0417 145.519 99.5087
l 11 12
v -0.0465837 147.493 100.506
v -1.0417 145.519 99.5087
l 13 14
v 0.851854 149.276 101.852
v -0.0465837 147.493 100.506
l 15 16
v 0.851854 149.276 101.852
v 1.65928 151.173 102.948
l 17 18
