v -32.7849 -209.994 146.537
v -33.7336 -209.995 146.854
l 1 2
v 3.86729 -109.5 62.0888
v 4.33798 -110.285 62.4913
l 3 4
v 3.99815 -111.776 63.3495
v 4.5908 -112.158 64.0586
l 5 6
v 5.04014 -111.456 63.0917
v 5.55521 -112.198 63.5217
l 7 8
v 5.29893 -111.917 61.954
v 5.15954 -110.93 61.8792
l 9 10
v 17.4109 -246.722 89.6919
v 16.6841 -247.37 89.4638
l 11 12
v -1.98018 143.399 98.9423
v -1.58697 144.287 99.1797
l 13 14
v -0.0465837 147.493 100.506
v -0.456899 146.679 100.095
l 15 16
v 0.851854 149.276 101.852
v 0.478731 148.535 101.293
l 17 18
v 0.851854 149.276 101.852
v 1.19763 150.089 102.321
l 19 20
