# Wavefront OBJ file written 2026-09-23T11:56:34
o bull_edgeMesh

# points : 16
# lines  : 10

# <points count="16">
v -32.7849 -209.994 146.537
v -35.4529 -209.997 147.427
v 3.86729 -109.5 62.0888
v 5.04014 -111.456 63.0917
v 3.99815 -111.776 63.3495
v 5.7921 -112.932 65.496
v 6.38878 -113.398 64.2177
v 5.29893 -111.917 61.954
v 4.92198 -109.247 61.7518
v 17.4109 -246.722 89.6919
v 16.1228 -247.87 89.2876
v -1.98018 143.399 98.9423
v -1.0417 145.519 99.5087
v -0.0465837 147.493 100.506
v 0.851854 149.276 101.852
v 1.65928 151.173 102.948
# </points>

# <edges count="10">
l 1 2
l 3 4
l 5 6
l 4 7
l 8 9
l 10 11
l 12 13
l 14 13
l 15 14
l 15 16
# </edges>
