v -45.7035 4.43019 0.092987
v -46.5989 4.11682 0.409252
l 1 2
v -45.7297 4.421 0.10226
v -46.0639 3.69034 0.697637
l 3 4
v -45.7273 4.38618 0.131937
v -45.0611 4.85042 -0.451703
l 5 6
v -45.7074 4.40007 0.114479
v -45.6026 5.20961 -0.463152
l 7 8
v -45.7353 4.39615 0.123256
v -45.2184 3.75053 0.685337
l 9 10
v -45.7353 4.40877 0.112224
v -45.7333 3.65589 0.770376
l 11 12
v -43.277 4.421 0.10226
v -44.1725 4.73438 -0.213947
l 13 14
v -43.2714 4.40877 0.112225
v -43.6056 5.13941 -0.48319
l 15 16
v -43.3033 4.43019 0.0929889
v -43.1984 3.6206 0.670545
l 17 18
v -43.2994 4.40007 0.114477
v -42.6332 3.93584 0.698159
l 19 20
v -43.2794 4.38618 0.131937
v -42.7625 5.03177 -0.430167
l 21 22
v -43.2715 4.39615 0.123256
v -43.2696 5.14909 -0.534837
l 23 24
