v -45.7035 4.43019 0.092987
v -45.7297 4.421 0.10226
l 1 2
v -45.7297 4.421 0.10226
v -45.7353 4.40877 0.112224
l 3 4
v -45.7273 4.38618 0.131937
v -45.7074 4.40007 0.114479
l 5 6
v -45.7074 4.40007 0.114479
v -45.7035 4.43019 0.092987
l 7 8
v -45.7353 4.39615 0.123256
v -45.7273 4.38618 0.131937
l 9 10
v -45.7353 4.40877 0.112224
v -45.7353 4.39615 0.123256
l 11 12
v -43.277 4.421 0.10226
v -43.3033 4.43019 0.0929889
l 13 14
v -43.2714 4.40877 0.112225
v -43.277 4.421 0.10226
l 15 16
v -43.3033 4.43019 0.0929889
v -43.2994 4.40007 0.114477
l 17 18
v -43.2994 4.40007 0.114477
v -43.2794 4.38618 0.131937
l 19 20
v -43.2794 4.38618 0.131937
v -43.2715 4.39615 0.123256
l 21 22
v -43.2715 4.39615 0.123256
v -43.2714 4.40877 0.112225
l 23 24
