# Wavefront OBJ file written 2026-09-23T11:57:10
o cow_edgeMesh

# points : 12
# lines  : 12

# <points count="12">
v -45.7035 4.43019 0.092987
v -45.7297 4.421 0.10226
v -45.7353 4.40877 0.112224
v -45.7273 4.38618 0.131937
v -45.7074 4.40007 0.114479
v -45.7353 4.39615 0.123256
v -43.277 4.421 0.10226
v -43.3033 4.43019 0.0929889
v -43.2714 4.40877 0.112225
v -43.2994 4.40007 0.114477
v -43.2794 4.38618 0.131937
v -43.2715 4.39615 0.123256
# </points>

# <edges count="12">
l 1 2
l 2 3
l 4 5
l 5 1
l 6 4
l 3 6
l 7 8
l 9 7
l 8 10
l 10 11
l 11 12
l 12 9
# </edges>
